<?xml version="1.0" encoding="utf-8"?>

<svg version="1.1" id="_x32_" xmlns="http://www.w3.org/2000/svg" xmlns:xlink="http://www.w3.org/1999/xlink" 
	 width="800px" height="800px" viewBox="0 0 512 512"  xml:space="preserve">
<style type="text/css">
<![CDATA[
	.st0{fill:#currentColor;}
]]>
</style>
<g>
	<path class="st0" d="M463.791,243.222c-2.969-7.578-7.453-14.141-12.938-19.234c-5.484-5.109-11.844-9.266-18.938-10.766
		c-42.047-8.938-62.079,13.594-70.313,32.094c-2.328,5.266-4.328,10.406-4.688,16.047c-0.422,6.719,3.25,13.625,6.875,19.328
		c3.656,5.656,7.344,9.922,7.344,9.922c2.922,4.234,3.844,7.391,3.234,9.781c-0.625,2.375-2.813,4-6.188,5.344
		c0,0-4.188,1.422-8.859,4.281c-4.703,2.891-9.891,7.094-12.219,13.406c-2.297,6.234-1.422,14.125-0.234,20.75
		c1.219,6.609,2.859,11.828,2.859,11.828c0.047,4.453-2.016,8.828-5.469,11.656c0,0-2.328,0.922-5.219,2.688
		c-2.891,1.797-6.359,4.422-8.719,8.047c-1.141,1.766-1.969,3.672-2.547,5.625c-1.063-2.407-2.234-4.5-3.375-6.25
		c-3.516-5.391-6.75-7.891-6.734-7.906c-5.141-9.453-8.125-21.406-7.438-31.266c0,0.016,3.141-6.359,4.828-16.125
		c1.734-9.734,1.875-22.766-2.938-34.75c-0.734-1.797-1.547-3.531-2.422-5.172l-0.313-0.594l-0.281-0.5l-0.594-0.938
		c-0.375-0.609-0.766-1.219-1.172-1.813c-1.594-2.344-3.266-4.453-4.797-6.25c-3.063-3.594-5.531-5.922-5.531-5.922
		c-3.375-5.359-4.516-12.344-3.047-18.234c0.016,0.016,3.484-6.094,7.375-14.016c1.922-3.984,3.984-8.422,5.672-13
		c1.703-4.594,3.047-9.313,3.469-14.109c0.453-4.813,0.016-9.391-0.844-13.703c-0.875-4.297-2.188-8.297-3.547-11.781
		c-2.734-6.953-5.688-11.766-5.703-11.75c-3.203-10.344-2.047-17.109,8.719-23.047c0.016,0.016,6.125-4.609,15.156-8.047
		c12.984-4.938,25.734-14.906,38.766-37.406c13.047-22.5,9.359-62.453-18.547-83.156c-7.078-5.25-14.234-9.375-22.484-12.297
		C287.556-6.2,256.525,0.519,238.306,23.3c-33.453,41.813-7.891,89.484-7.891,89.469c0.984,8.734,0.719,14.766-1,19.5
		s-4.875,8.141-9.391,11.516c0.016,0.016-5.578,3.563-11.906,11.469c-3.172,3.938-6.484,9-9.25,15.188
		c-2.766,6.172-4.984,13.484-5.859,21.734c-0.859,8.125-0.281,16.594,1.25,24.516c1.516,7.938,3.953,15.328,6.563,21.516
		c5.25,12.422,11.047,20,11.016,20.016c3.516,8.125,5.781,17.875,6.281,26.938c0.016,0-0.75,4.469-0.563,11.297
		c0.094,3.406,0.453,7.422,1.25,11.688c0.391,2.141,0.922,4.344,1.563,6.578l0.516,1.656l0.516,1.563
		c0.313,0.922,0.641,1.844,1.016,2.766c4.875,12.109,13.281,20.141,20.422,25.547c7.141,5.359,13.125,8.141,13.141,8.141
		c5.984,6.328,9,16.422,7.188,24.531c-0.016,0-2.125,2.75-4.125,7.11c-1.984,4.375-3.875,10.156-3.594,16.969
		c0.188,4.625,0.859,9.031,1.906,13.328c-1.031-0.094-2.047-0.141-3-0.125c-4.406,0.016-7.578,0.906-7.578,0.906
		c-7.172-1.313-13.5-6.828-15.578-13.563c0,0,0.625-5.891-0.094-13.156c-0.734-7.313-2.656-15.907-8.438-22.079
		c-3.5-3.719-8.063-6.156-11.813-7.75c-3.719-1.594-6.625-2.297-6.625-2.297c-4.578-2.734-7.859-7.484-8.656-12.625
		c0.016,0,0.906-6.25,1.078-14.063c0.125-7.828-0.359-17.109-4.203-24.156c-3.859-7.078-10.578-11.391-16.469-14.219
		c-5.859-2.797-10.875-3.953-10.875-3.953c-8.203-4.375-11.063-8.875-6.047-18.469c0.016,0.016,3.688-5.703,7.031-13.281
		c3.328-7.625,6.406-16.984,4.656-25.594c-1.453-7.078-4.359-13.578-8.453-19.5s-9.391-11.25-15.609-15.781
		c-12.438-9.016-28.641-15-46.25-14.141c-17.578,0.844-33.234,8.828-43.594,22.359c-5.172,6.734-8.984,14.828-10.984,23.766
		s-2.188,18.734-0.156,28.672c2.422,11.953,10.375,22.234,17.688,29.063c7.328,6.859,13.953,10.422,13.953,10.438
		c5.813,4.125,8.984,7.563,10.219,11.125s0.531,7.203-1.328,11.594c0,0-2.594,5.078-3.781,12.984
		c-1.188,7.875-0.875,18.719,4.797,29.266c5.563,10.406,15.766,18.609,24.469,23.672c8.703,5.125,15.891,7.328,15.875,7.344
		c5.484,3.594,10.094,9.172,12.688,15.266c0.016,0,0.438,3.469,2.094,8.234c1.625,4.75,4.516,10.844,9.188,15.859
		c7.766,8.359,18.422,11.891,26.844,13.047c8.469,1.188,14.781,0.188,14.781,0.188c7.844,1.984,15.188,7.703,19,14.813
		c0,0,0.078,3.422,1.734,7.984s4.953,10.281,11.234,14.594c10.281,7.063,22.234,9.422,32.656,7.547
		c2.094-0.375,4.125-0.906,6.078-1.609c2.625,13.25,15.172,23.313,30.234,23.313c15.594,0,28.453-10.75,30.484-24.672
		c8.188-0.469,16.563-4.188,23.094-11.063c4.266-4.516,5.922-9.797,6.453-13.875c0.547-4.109,0-7.031,0-7.031
		c1.844-6.516,6.859-12.281,12.922-14.844c0,0,5.313,0.125,12.016-1.766c6.703-1.875,14.828-5.875,19.906-13.625
		c3.063-4.656,4.531-10.031,5.188-14.172c0.656-4.156,0.531-7.109,0.531-7.109c1.266-5.359,4.313-10.406,8.391-13.859
		c-0.016-0.016,5.641-2.406,12.25-7.313c6.594-4.859,14.11-12.406,17.547-21.563c3.453-9.172,2.484-18.234,0.578-24.719
		c-1.922-6.5-4.672-10.531-4.656-10.531c-3.016-8.906-2.859-13.797,5.375-20.406c-0.016-0.016,5.453-3.531,11.172-10.078
		c2.859-3.266,5.75-7.297,8.016-11.906c2.281-4.594,3.906-9.781,4.234-15.203C468.182,259.378,466.76,250.785,463.791,243.222z
		 M261.65,462.363c-1.844,2.922-5.906,3.672-9.016,1.609c-19.766-13-38.5-27.703-55.578-44.172
		c-17.078-16.453-32.469-34.703-45.641-54.438c-13.156-19.719-24.078-40.875-32.625-62.891s-14.75-44.844-18.859-67.953
		c-0.656-3.641,1.641-7.031,5.063-7.578c3.422-0.531,6.641,1.891,7.266,5.391c4,22.391,9.984,44.422,18.219,65.609
		c8.234,21.203,18.719,41.531,31.375,60.484s27.453,36.5,43.922,52.375s34.594,30.094,53.766,42.734
		C262.556,455.504,263.509,459.441,261.65,462.363z M298.712,417.113c-0.281,4.859-3.547,8.406-6.969,7.953
		c-3.438-0.438-5.797-4.375-5.531-8.813c0.844-14.219-0.313-28.547-3.156-42.719c-2.813-14.172-7.25-28.172-12.375-42.156
		c-2.563-6.984-5.281-13.984-8.031-21.016l-4.172-10.672c-1.391-3.688-2.688-7.406-3.875-11.156
		c-4.766-15.031-7.844-30.578-9.172-46.234c-2.734-31.344,1.609-62.906,10.984-92.484c9.375-29.641,23.625-57.391,40.797-82.875
		c2.688-4.016,7.25-5.563,10.047-3.531s2.875,6.766,0.281,10.625c-16.609,24.672-30.281,51.375-39.219,79.672
		c-8.938,28.234-12.984,58.125-10.391,87.656c1.266,14.75,4.172,29.359,8.656,43.5c1.125,3.531,2.344,7.047,3.656,10.516
		l4.109,10.516c2.766,7.063,5.516,14.141,8.141,21.297c5.234,14.297,9.891,28.938,12.875,44.016
		C298.384,386.27,299.65,401.754,298.712,417.113z M410.244,313.566c-4.844,19.109-11.813,37.594-20.484,55.188
		c-17.359,35.204-41.422,66.61-68.984,94.016c-1.078,1.078-2.5,1.609-3.891,1.594c-1.563-1.594-3.328-3.016-5.234-4.25
		c-0.406-1.781,0.078-3.703,1.453-5.078c26.859-26.719,50.172-57.188,66.891-91.11c8.359-16.953,15.047-34.719,19.688-53.047
		c4.641-18.313,7.219-37.156,7.547-56.094c0.063-2.969,2.484-5.391,5.484-5.406c3.016-0.031,5.469,2.484,5.406,5.609
		C417.775,274.769,415.087,294.472,410.244,313.566z"/>
</g>
</svg>